<?xml version="1.0" encoding="utf-8"?>
<!-- Generator: Adobe Illustrator 19.0.0, SVG Export Plug-In . SVG Version: 6.00 Build 0)  -->
<svg version="1.1" id="Layer_1" xmlns="http://www.w3.org/2000/svg" xmlns:xlink="http://www.w3.org/1999/xlink" x="0px" y="0px"
	 viewBox="58.1 498.1 141.7 141.7" style="enable-background:new 58.1 498.1 141.7 141.7;" xml:space="preserve">
<style type="text/css">
	.st0{fill:#36373A;}
</style>
<g>
	<path class="st0" d="M197.6,540.1l-33.1-22.2c-1.5-1-3.3-1-4.8,0L129,538.5l-30.7-20.6c-1.5-1-3.3-1-4.8,0l-33.1,22.2
		c-1.4,0.9-2.2,2.6-2.2,4.4v88.9c0,1.9,0.9,3.6,2.3,4.5c1.5,0.9,3.3,0.9,4.7-0.1l30.7-20.6l30.7,20.6c1.5,1,3.3,1,4.8,0l30.8-20.6
		l30.7,20.6c0.7,0.5,1.6,0.8,2.4,0.8c0.8,0,1.6-0.2,2.3-0.7c1.5-0.9,2.3-2.7,2.3-4.5v-88.9C199.8,542.7,199,541,197.6,540.1z
		 M90.7,608.6l-22.5,15.6v-76.5l22.5-15.6V608.6z M100.8,608.5v-38.7c0.3,0.2,0.6,0.4,0.9,0.6l2.9-4.1c-1.2-0.9-2.5-1.7-3.9-2.4V532
		l23.1,15.5v34.4c-1.7-0.6-3.4-1.4-5.2-2.5l-2.7,4.3c2.2,1.4,4.3,2.4,6.5,3.1l1.3-4v41.2L100.8,608.5z M134,623.9v-35.9
		c0.1,0,0.1,0,0.2,0c0.9-0.1,1.8-0.2,2.7-0.3l-0.8-5c-0.7,0.1-1.4,0.2-2.1,0.2v-35.5l23.1-15.5v37.7l-1.7-1.5
		c-0.9,1-1.8,2.1-2.7,3.1c-0.6,0.7-1.1,1.3-1.7,1.9l3.8,3.4c0.6-0.6,1.1-1.3,1.7-2c0.2-0.2,0.4-0.4,0.6-0.7v34.5L134,623.9z
		 M189.7,623.9l-22.5-15.3v-43.4c1.1-0.5,2.3-0.9,3.5-1.1l-1-5c-0.9,0.2-1.7,0.4-2.5,0.7v-27.7l22.5,15.3L189.7,623.9L189.7,623.9
		L189.7,623.9z"/>
	<path class="st0" d="M79.3,577.8c0.6-1.9,1.1-3.5,2.2-5.2l-4.2-2.8c-1.6,2.3-2.2,4.4-2.9,6.5l-0.1,0.3l4.8,1.6L79.3,577.8z"/>
	<path class="st0" d="M88.7,566.8c0.7-0.4-0.4-0.3,0.3-0.6l-1.6-4.8c-1,0.3-2.1,0.8-3,1.3c-1.2,0.7-2.4,1.6-3.6,2.6l3.4,3.7
		C85.1,568.3,87.9,567.2,88.7,566.8z"/>
	<path class="st0" d="M141.7,581l2.2,4.6c2.1-1,4-2.3,6-4.1l-3.4-3.8C145,579.1,143.4,580.2,141.7,581z"/>
	<path class="st0" d="M110.6,572.1c-0.3-0.4-0.6-0.8-0.9-1.1l-3.9,3.3c0.3,0.4,0.6,0.7,0.9,1.1c1.1,1.4,2.3,2.8,3.7,4l3.5-3.7
		C112.7,574.6,111.7,573.4,110.6,572.1z"/>
	<polygon class="st0" points="177,569.5 180.2,566.2 183.5,569.5 187.1,565.9 183.8,562.7 187.1,559.4 183.5,555.8 180.2,559.1 
		177,555.8 173.4,559.4 176.6,562.7 173.4,565.9 	"/>
</g>
</svg>
